<?xml version="1.0" standalone="no"?>
<!DOCTYPE svg PUBLIC "-//W3C//DTD SVG 20010904//EN"
 "http://www.w3.org/TR/2001/REC-SVG-20010904/DTD/svg10.dtd">
<svg version="1.0" xmlns="http://www.w3.org/2000/svg"
 width="114.000000pt" height="114.000000pt" viewBox="0 0 114.000000 114.000000"
 preserveAspectRatio="xMidYMid meet">
<metadata>
Created by potrace 1.11, written by Peter Selinger 2001-2013
</metadata>
<g transform="translate(0.000000,114.000000) scale(0.100000,-0.100000)"
fill="#000000" stroke="none">
<path d="M1031 998 c-12 -4 -32 -10 -44 -12 -12 -2 -49 -11 -83 -20 -98 -25
-107 -26 -125 -3 -25 30 -78 26 -104 -9 -11 -15 -30 -39 -43 -53 -20 -21 -23
-33 -17 -66 3 -22 9 -143 13 -270 4 -126 11 -237 16 -245 6 -8 9 -42 8 -75 -2
-55 0 -63 20 -73 66 -33 109 -23 285 65 147 74 164 91 167 175 1 36 -3 69 -9
75 -12 11 -101 -5 -207 -38 -37 -11 -71 -21 -74 -22 -4 -1 -8 7 -10 18 -2 16
8 27 44 45 26 14 49 28 50 33 2 4 8 7 13 7 6 0 33 17 62 39 45 33 53 44 55 74
4 64 -35 75 -155 41 -69 -19 -83 -18 -83 7 0 27 18 59 33 59 7 0 25 7 42 16
16 8 54 17 85 20 97 10 136 56 143 174 2 31 -1 35 -29 40 -17 4 -41 3 -53 -2z"/>
<path d="M385 896 c-7 -12 -26 -65 -41 -118 l-28 -97 -24 97 c-13 53 -29 101
-36 105 -6 4 -26 6 -43 3 -18 -3 -35 0 -39 5 -3 5 -18 8 -32 6 -53 -6 -85
-123 -97 -349 -3 -71 -8 -138 -11 -150 -2 -13 -7 -67 -10 -120 -6 -82 -4 -101
10 -123 15 -22 23 -26 58 -23 63 5 84 47 114 223 l7 40 13 -49 c15 -58 27 -68
74 -61 51 8 82 35 100 91 l17 49 7 -45 c3 -25 9 -63 11 -85 9 -71 15 -107 21
-116 7 -13 71 -11 79 1 4 6 24 18 45 26 22 9 42 25 45 35 6 18 1 125 -10 209
-2 19 -7 67 -10 105 -20 242 -31 289 -79 334 -36 34 -121 38 -141 7z"/>
</g>
</svg>
